<svg xmlns="http://www.w3.org/2000/svg" viewBox="0 0 64 64" role="img" aria-labelledby="title">
  <title id="title">Sinha Molecular Evolution Group favicon</title>
  <rect width="64" height="64" rx="10" fill="#07141b"/>
  <rect x="7" y="7" width="50" height="50" rx="7" fill="none" stroke="#c7a04a" stroke-opacity=".38" stroke-width="2"/>
  <g opacity=".95">
    <rect x="15" y="15" width="7" height="7" rx="2" fill="#b8d4c7"/>
    <rect x="25" y="15" width="7" height="7" rx="2" fill="#345c72"/>
    <rect x="35" y="15" width="7" height="7" rx="2" fill="#c7a04a"/>
    <rect x="45" y="15" width="7" height="7" rx="2" fill="#517664"/>
    <rect x="15" y="26" width="7" height="7" rx="2" fill="#345c72"/>
    <rect x="25" y="26" width="7" height="7" rx="2" fill="#c7a04a"/>
    <rect x="35" y="26" width="7" height="7" rx="2" fill="#b8d4c7"/>
    <rect x="45" y="26" width="7" height="7" rx="2" fill="#345c72"/>
    <rect x="15" y="37" width="7" height="7" rx="2" fill="#517664"/>
    <rect x="25" y="37" width="7" height="7" rx="2" fill="#345c72"/>
    <rect x="35" y="37" width="7" height="7" rx="2" fill="#c7a04a"/>
    <rect x="45" y="37" width="7" height="7" rx="2" fill="#b8d4c7"/>
  </g>
  <path d="M16 51c11-12 20-12 32 0" fill="none" stroke="#c7a04a" stroke-width="3" stroke-linecap="round"/>
</svg>
