<svg xmlns="http://www.w3.org/2000/svg" viewBox="0 0 64 64" role="img" aria-labelledby="title">
  <title id="title">Evolutionary Bioinformatics Group favicon</title>
  <rect width="64" height="64" rx="10" fill="#cc1418"/>
  <rect x="7" y="7" width="50" height="50" rx="7" fill="none" stroke="#ffffff" stroke-opacity=".5" stroke-width="2"/>
  <g opacity=".95">
    <rect x="15" y="15" width="7" height="7" rx="2" fill="#ffffff"/>
    <rect x="25" y="15" width="7" height="7" rx="2" fill="#ffe1cc"/>
    <rect x="35" y="15" width="7" height="7" rx="2" fill="#f4b991"/>
    <rect x="45" y="15" width="7" height="7" rx="2" fill="#e96c61"/>
    <rect x="15" y="26" width="7" height="7" rx="2" fill="#75a3a6"/>
    <rect x="25" y="26" width="7" height="7" rx="2" fill="#f4b991"/>
    <rect x="35" y="26" width="7" height="7" rx="2" fill="#ffffff"/>
    <rect x="45" y="26" width="7" height="7" rx="2" fill="#75a3a6"/>
    <rect x="15" y="37" width="7" height="7" rx="2" fill="#e96c61"/>
    <rect x="25" y="37" width="7" height="7" rx="2" fill="#75a3a6"/>
    <rect x="35" y="37" width="7" height="7" rx="2" fill="#f4b991"/>
    <rect x="45" y="37" width="7" height="7" rx="2" fill="#ffffff"/>
  </g>
  <path d="M16 51c11-12 20-12 32 0" fill="none" stroke="#ffe1cc" stroke-width="3" stroke-linecap="round"/>
</svg>
