<svg xmlns="http://www.w3.org/2000/svg" viewBox="0 0 512 512" role="img" aria-labelledby="title desc">
  <title id="title">Sinha Molecular Evolution Group logo</title>
  <desc id="desc">Original logo mark combining sequence alignment blocks, a phylogenetic tree, adaptive selection highlights, and a molecular helix motif.</desc>
  <defs>
    <linearGradient id="bg" x1="72" y1="64" x2="430" y2="448" gradientUnits="userSpaceOnUse">
      <stop offset="0" stop-color="#102a38"/>
      <stop offset="1" stop-color="#07141b"/>
    </linearGradient>
    <linearGradient id="gold" x1="150" y1="80" x2="410" y2="420" gradientUnits="userSpaceOnUse">
      <stop offset="0" stop-color="#f2d27b"/>
      <stop offset="1" stop-color="#b8892e"/>
    </linearGradient>
    <linearGradient id="green" x1="120" y1="350" x2="260" y2="430" gradientUnits="userSpaceOnUse">
      <stop offset="0" stop-color="#b8d4c7"/>
      <stop offset="1" stop-color="#517664"/>
    </linearGradient>
  </defs>

  <rect x="28" y="28" width="456" height="456" rx="70" fill="url(#bg)"/>
  <rect x="48" y="48" width="416" height="416" rx="54" fill="none" stroke="#c7a04a" stroke-opacity=".35" stroke-width="8"/>

  <g opacity=".74">
    <rect x="106" y="104" width="18" height="48" rx="5" fill="#b8d4c7"/>
    <rect x="134" y="86" width="18" height="80" rx="5" fill="#345c72"/>
    <rect x="162" y="116" width="18" height="50" rx="5" fill="#c7a04a"/>
    <rect x="190" y="94" width="18" height="72" rx="5" fill="#b8d4c7"/>
    <rect x="218" y="124" width="18" height="42" rx="5" fill="#345c72"/>
  </g>

  <g fill="none" stroke-linecap="round" stroke-linejoin="round">
    <path d="M138 262h86c42 0 54-66 98-88" stroke="#dfe8e4" stroke-width="18"/>
    <path d="M224 262c45 0 64 64 104 88" stroke="#dfe8e4" stroke-width="18"/>
    <path d="M320 176h86" stroke="#dfe8e4" stroke-width="18"/>
    <path d="M328 350h78" stroke="#dfe8e4" stroke-width="18"/>
    <path d="M276 236h92" stroke="url(#gold)" stroke-width="20"/>
    <path d="M368 236h42" stroke="url(#gold)" stroke-width="20"/>
  </g>

  <g fill="url(#gold)">
    <circle cx="276" cy="236" r="20"/>
    <circle cx="338" cy="236" r="13"/>
    <circle cx="322" cy="176" r="12"/>
    <circle cx="328" cy="350" r="12"/>
  </g>

  <g opacity=".74" fill="none" stroke="#7da5b8" stroke-width="9" stroke-linecap="round">
    <path d="M128 372c44-56 88-56 132 0"/>
    <path d="M128 414c44-56 88-56 132 0"/>
    <path d="M151 346c0 78 86 38 86 116"/>
    <path d="M237 346c0 78-86 38-86 116"/>
  </g>

  <path d="M178 394c34-54 76-54 112 0-38 24-76 24-112 0Z" fill="url(#green)" opacity=".9"/>
  <path d="M234 350v92" stroke="#dfe8e4" stroke-opacity=".72" stroke-width="8" stroke-linecap="round"/>
</svg>
